<?xml version="1.0" standalone="no"?>
<!DOCTYPE svg PUBLIC "-//W3C//DTD SVG 20010904//EN"
 "http://www.w3.org/TR/2001/REC-SVG-20010904/DTD/svg10.dtd">
<svg version="1.0" xmlns="http://www.w3.org/2000/svg"
 width="1280.000000pt" height="996.000000pt" viewBox="0 0 1280.000000 996.000000"
 preserveAspectRatio="xMidYMid meet">
<metadata>
Created by potrace 1.15, written by Peter Selinger 2001-2017
</metadata>
<g transform="translate(0.000000,996.000000) scale(0.100000,-0.100000)"
fill="#000000" stroke="none">
<path d="M7210 9949 c-684 -78 -1277 -529 -1528 -1165 -82 -205 -120 -392
-129 -624 -27 -739 382 -1416 1052 -1740 970 -469 2137 -16 2538 985 246 615
149 1306 -259 1836 -385 501 -1043 779 -1674 708z"/>
<path d="M3045 7634 c-333 -34 -575 -101 -833 -229 -552 -274 -949 -732 -1146
-1319 -132 -396 -144 -877 -32 -1288 174 -635 615 -1161 1209 -1443 331 -157
655 -224 1035 -212 202 6 311 21 496 68 472 119 908 406 1213 799 234 302 390
668 449 1060 22 140 25 471 6 605 -57 397 -199 745 -436 1065 -90 122 -324
356 -446 447 -306 226 -651 371 -1021 428 -101 15 -413 27 -494 19z"/>
<path d="M10080 5964 c-428 -52 -776 -217 -1069 -506 -447 -443 -622 -1087
-461 -1696 242 -910 1162 -1471 2079 -1266 830 186 1410 933 1378 1774 -15
373 -128 698 -346 991 -269 361 -660 602 -1111 685 -82 15 -396 27 -470 18z"/>
<path d="M6134 5848 c85 -510 21 -1093 -171 -1578 -60 -151 -175 -379 -259
-510 -36 -58 -68 -109 -70 -115 -3 -7 391 -9 1173 -7 648 1 1177 6 1177 10 -1
4 -7 32 -14 62 -45 213 -63 530 -41 741 44 425 198 835 436 1158 26 35 45 65
42 67 -2 2 -37 -11 -78 -30 -171 -79 -405 -144 -609 -172 -151 -20 -432 -19
-576 1 -345 48 -671 175 -953 372 l-64 44 7 -43z"/>
<path d="M1045 3243 c-67 -16 -209 -70 -286 -108 -133 -66 -232 -137 -341
-243 -117 -114 -203 -231 -273 -377 -61 -125 -87 -200 -118 -335 -20 -93 -21
-118 -24 -1137 l-4 -1043 3236 0 3235 0 0 994 c0 962 -3 1068 -31 1201 -37
172 -126 372 -229 517 -76 106 -228 256 -333 327 -139 93 -350 186 -467 205
-33 6 -38 3 -79 -49 -129 -163 -355 -370 -551 -507 -344 -238 -736 -395 -1155
-460 -114 -18 -185 -22 -380 -22 -251 -1 -339 7 -545 49 -573 117 -1114 440
-1511 902 -81 94 -90 99 -144 86z"/>
<path d="M8475 2509 c-330 -111 -588 -377 -683 -704 -46 -157 -47 -168 -47
-1005 l0 -795 2528 -3 2528 -2 -4 827 c-4 915 -1 867 -70 1053 -19 49 -56 126
-83 171 -59 98 -190 240 -286 310 -86 62 -226 131 -331 161 l-79 22 -35 -44
c-56 -70 -240 -250 -319 -312 -283 -224 -623 -376 -979 -439 -169 -30 -492
-33 -651 -6 -476 80 -881 295 -1216 645 -54 56 -105 113 -114 127 -21 33 -48
32 -159 -6z"/>
</g>
</svg>
